<?xml version="1.0" encoding="UTF-8"?><svg id="a" xmlns="http://www.w3.org/2000/svg" viewBox="0 0 373.11 136.55"><defs><style>.b{fill:#86b600;}</style></defs><path d="M37.81,105.9c0,.51-.08,.92-.23,1.22-.16,.3-.34,.54-.55,.72-.21,.18-.44,.3-.69,.35-.25,.06-.46,.08-.64,.08s-.39-.03-.64-.08c-.24-.06-.47-.17-.69-.35-.21-.18-.4-.42-.55-.72-.16-.3-.23-.71-.23-1.22v-19.58c0-.49,.08-.89,.23-1.21,.16-.31,.34-.56,.55-.74,.21-.18,.44-.3,.69-.35,.25-.06,.46-.08,.64-.08s.39,.03,.64,.08c.25,.06,.47,.17,.69,.35,.21,.18,.4,.42,.55,.74,.16,.31,.23,.71,.23,1.21v19.58Z"/><path d="M64.27,84.24c.45,0,.81,.07,1.09,.2,.28,.13,.49,.3,.64,.5,.14,.2,.24,.41,.28,.62,.04,.21,.07,.38,.07,.52s-.02,.31-.07,.52c-.04,.21-.14,.42-.28,.62-.15,.2-.36,.37-.64,.5-.28,.13-.64,.2-1.09,.2h-5.5v17.97c0,.51-.08,.92-.23,1.23-.16,.3-.34,.54-.55,.72-.21,.18-.44,.3-.69,.35-.25,.05-.46,.08-.64,.08s-.39-.03-.64-.08c-.25-.06-.47-.17-.69-.35-.21-.18-.4-.42-.55-.72-.16-.3-.24-.71-.24-1.23v-17.97h-5.5c-.45,0-.81-.07-1.09-.2-.28-.13-.49-.3-.64-.5-.15-.2-.24-.41-.29-.62-.04-.21-.07-.38-.07-.52s.02-.31,.07-.52c.05-.21,.14-.42,.29-.62,.14-.2,.36-.37,.64-.5,.28-.13,.64-.2,1.09-.2h15.23Z"/><path d="M182.82,95.3c-.44-.42-.89-.71-1.37-.87-.48-.17-.97-.25-1.47-.25-.33,0-.67,.04-1,.11-.33,.07-.63,.19-.89,.34-.26,.16-.47,.35-.62,.59-.16,.24-.23,.54-.23,.89,0,.62,.28,1.09,.84,1.39,.56,.3,1.41,.58,2.53,.83,.71,.17,1.36,.36,1.97,.59,.6,.23,1.13,.51,1.58,.86,.45,.34,.79,.75,1.05,1.23,.25,.48,.37,1.04,.37,1.69,0,.87-.17,1.61-.5,2.22-.33,.6-.77,1.1-1.33,1.48-.55,.39-1.18,.66-1.89,.83-.71,.17-1.44,.25-2.19,.25-.89,0-1.78-.14-2.64-.42-.86-.28-1.61-.69-2.23-1.23-.25-.23-.42-.45-.5-.66-.08-.21-.12-.38-.12-.53,0-.37,.12-.69,.36-.94,.24-.25,.55-.37,.92-.37,.35,0,.72,.16,1.09,.47,.48,.42,.98,.74,1.5,.97,.52,.23,1.08,.34,1.69,.34,.37,0,.73-.04,1.08-.11,.34-.07,.66-.19,.94-.36s.5-.38,.67-.65c.17-.27,.25-.61,.25-1.03,0-.69-.33-1.2-.98-1.53-.66-.33-1.62-.64-2.89-.94-.5-.13-1.01-.28-1.51-.45-.51-.18-.97-.42-1.39-.72-.42-.3-.75-.69-1.02-1.16-.26-.47-.39-1.06-.39-1.76,0-.79,.16-1.47,.48-2.05,.32-.57,.74-1.04,1.26-1.4,.52-.36,1.11-.64,1.78-.81,.67-.18,1.35-.26,2.06-.26,.79,0,1.57,.11,2.33,.34,.76,.23,1.41,.58,1.95,1.06,.29,.23,.48,.45,.56,.66,.08,.21,.12,.38,.12,.53,0,.35-.11,.66-.34,.9-.23,.25-.54,.38-.94,.38-.31,0-.62-.15-.94-.44"/><path d="M198.99,100.54c.02,.62,.16,1.21,.42,1.76,.26,.55,.61,1.03,1.05,1.44,.44,.41,.94,.72,1.51,.95,.57,.23,1.18,.34,1.83,.34,.89,0,1.64-.16,2.23-.48,.59-.32,1.12-.69,1.58-1.11,.21-.19,.39-.31,.55-.37,.16-.06,.32-.09,.48-.09,.35,0,.65,.11,.89,.33,.24,.22,.36,.51,.36,.89,0,.12-.03,.28-.09,.47-.06,.19-.19,.39-.37,.59-1.44,1.48-3.31,2.22-5.62,2.22-1.13,0-2.17-.19-3.12-.56-.96-.37-1.78-.9-2.47-1.58-.69-.68-1.23-1.49-1.62-2.45-.39-.96-.59-2.02-.59-3.18s.19-2.2,.58-3.17c.38-.97,.92-1.8,1.61-2.48,.69-.69,1.5-1.22,2.43-1.61,.94-.39,1.95-.58,3.03-.58,1.87,0,3.44,.53,4.7,1.58,1.26,1.05,2.03,2.6,2.33,4.64,.04,.23,.06,.41,.06,.53v.44c0,1-.52,1.5-1.56,1.5h-10.18Zm8.8-2.19c-.02-.58-.12-1.13-.3-1.64-.18-.51-.44-.95-.78-1.33-.34-.37-.77-.67-1.28-.89-.51-.22-1.11-.33-1.79-.33-.62,0-1.21,.11-1.76,.33-.55,.22-1.03,.51-1.44,.89-.4,.38-.74,.82-1,1.33-.26,.51-.41,1.06-.45,1.64h8.8Z"/><path d="M225.31,94.77h.09c.35-.83,.91-1.53,1.69-2.08,.77-.55,1.64-.83,2.62-.83,.46,0,.86,.1,1.2,.3,.34,.2,.52,.54,.52,1.02,0,.52-.17,.88-.52,1.09-.34,.21-.75,.31-1.23,.31h-.22c-1.17,0-2.12,.42-2.87,1.25-.75,.83-1.12,2.05-1.12,3.65v6.21c0,.35-.05,.63-.16,.84-.1,.21-.23,.37-.39,.48s-.32,.19-.48,.23c-.17,.04-.31,.06-.44,.06s-.27-.02-.44-.06c-.17-.04-.33-.12-.48-.23s-.29-.27-.39-.48-.16-.49-.16-.84v-12.12c0-.33,.05-.6,.16-.81,.1-.21,.23-.36,.37-.47,.15-.1,.3-.18,.45-.22,.16-.04,.3-.06,.42-.06,.1,0,.23,.02,.39,.06,.16,.04,.31,.11,.45,.22,.15,.1,.27,.26,.37,.47,.1,.21,.16,.48,.16,.81v1.19Z"/><path d="M247.98,107c-.39,.21-.77,.31-1.12,.31s-.73-.1-1.13-.31c-.39-.21-.74-.64-1.03-1.31l-4.84-11.43c-.08-.19-.14-.35-.16-.48-.02-.14-.03-.26-.03-.36,0-.39,.14-.73,.42-1,.28-.27,.63-.41,1.05-.41,.23,0,.48,.07,.76,.2,.28,.13,.52,.46,.73,.98l4.22,10.68h.06l4.25-10.68c.19-.5,.42-.82,.7-.97,.28-.14,.53-.22,.76-.22,.42,0,.76,.13,1.03,.39,.27,.26,.41,.59,.41,.98,0,.08,0,.19-.03,.33-.02,.14-.07,.3-.16,.48l-4.87,11.49c-.29,.67-.64,1.1-1.03,1.31"/><path d="M268.4,86.93c0,.54-.19,.99-.58,1.34-.39,.35-.85,.53-1.39,.53s-1-.18-1.37-.55c-.37-.36-.56-.81-.56-1.33s.19-.99,.56-1.36c.37-.36,.83-.55,1.37-.55s1,.18,1.39,.55c.38,.36,.58,.82,.58,1.36m-.5,18.77c0,.35-.05,.63-.16,.84s-.23,.37-.39,.48-.32,.19-.48,.23c-.17,.04-.31,.06-.44,.06s-.27-.02-.44-.06c-.17-.04-.33-.12-.48-.23s-.29-.28-.39-.48c-.1-.21-.16-.49-.16-.84v-12.05c0-.33,.05-.61,.16-.83,.1-.22,.23-.38,.39-.5,.16-.11,.32-.19,.48-.23,.17-.04,.31-.06,.44-.06s.27,.02,.44,.06c.17,.04,.33,.12,.48,.23,.16,.12,.29,.28,.39,.5s.16,.49,.16,.83v12.05Z"/><path d="M290.5,104.01c.37-.29,.72-.44,1.03-.44,.37,0,.67,.12,.89,.36,.22,.24,.33,.51,.33,.83,0,.21-.04,.42-.13,.62-.08,.21-.27,.43-.56,.66-.58,.48-1.26,.84-2.03,1.08-.77,.24-1.57,.36-2.4,.36-1.15,0-2.2-.19-3.17-.56-.97-.38-1.8-.9-2.5-1.58-.7-.68-1.24-1.49-1.64-2.45-.4-.96-.59-2.03-.59-3.22s.2-2.23,.59-3.18c.39-.96,.95-1.78,1.65-2.47,.71-.69,1.55-1.22,2.51-1.59,.97-.37,2.01-.56,3.14-.56,.79,0,1.57,.11,2.33,.33,.76,.22,1.43,.57,2.01,1.05,.29,.23,.49,.45,.59,.67s.16,.42,.16,.61c0,.4-.12,.71-.37,.94s-.56,.34-.94,.34c-.17,0-.33-.04-.48-.11-.15-.07-.38-.22-.67-.45-.29-.23-.65-.44-1.09-.62-.44-.19-.94-.28-1.5-.28-.77,0-1.45,.15-2.05,.44-.59,.29-1.1,.68-1.51,1.17-.42,.49-.73,1.06-.95,1.7-.22,.64-.33,1.32-.33,2.03s.1,1.38,.31,2.01c.21,.63,.52,1.2,.92,1.69,.41,.49,.91,.88,1.52,1.17,.6,.29,1.29,.44,2.06,.44,.6,0,1.14-.08,1.59-.25,.46-.17,.88-.41,1.28-.72"/><path d="M305.83,100.54c.02,.62,.16,1.21,.42,1.76,.26,.55,.61,1.03,1.05,1.44,.44,.41,.94,.72,1.51,.95,.57,.23,1.18,.34,1.83,.34,.89,0,1.64-.16,2.23-.48,.59-.32,1.12-.69,1.58-1.11,.21-.19,.39-.31,.55-.37,.16-.06,.32-.09,.48-.09,.35,0,.65,.11,.89,.33,.24,.22,.36,.51,.36,.89,0,.12-.03,.28-.09,.47-.06,.19-.19,.39-.37,.59-1.44,1.48-3.31,2.22-5.62,2.22-1.13,0-2.17-.19-3.12-.56-.96-.37-1.78-.9-2.47-1.58-.69-.68-1.23-1.49-1.62-2.45-.39-.96-.59-2.02-.59-3.18s.19-2.2,.58-3.17c.38-.97,.92-1.8,1.61-2.48,.69-.69,1.5-1.22,2.43-1.61,.94-.39,1.95-.58,3.03-.58,1.87,0,3.44,.53,4.7,1.58,1.26,1.05,2.03,2.6,2.33,4.64,.04,.23,.06,.41,.06,.53v.44c0,1-.52,1.5-1.56,1.5h-10.18Zm8.8-2.19c-.02-.58-.12-1.13-.3-1.64-.18-.51-.44-.95-.78-1.33-.34-.37-.77-.67-1.28-.89-.51-.22-1.11-.33-1.79-.33-.62,0-1.21,.11-1.76,.33-.55,.22-1.03,.51-1.44,.89-.4,.38-.74,.82-1,1.33-.26,.51-.41,1.06-.45,1.64h8.8Z"/><path d="M336.77,95.3c-.44-.42-.89-.71-1.37-.87-.48-.17-.97-.25-1.47-.25-.33,0-.67,.04-1,.11-.33,.07-.63,.19-.89,.34-.26,.16-.47,.35-.62,.59-.16,.24-.23,.54-.23,.89,0,.62,.28,1.09,.84,1.39,.56,.3,1.41,.58,2.53,.83,.71,.17,1.36,.36,1.97,.59,.6,.23,1.13,.51,1.58,.86,.45,.34,.79,.75,1.05,1.23,.25,.48,.37,1.04,.37,1.69,0,.87-.17,1.61-.5,2.22-.33,.6-.77,1.1-1.33,1.48-.55,.39-1.18,.66-1.89,.83-.71,.17-1.44,.25-2.19,.25-.89,0-1.78-.14-2.64-.42-.86-.28-1.61-.69-2.23-1.23-.25-.23-.42-.45-.5-.66-.08-.21-.12-.38-.12-.53,0-.37,.12-.69,.36-.94,.24-.25,.55-.37,.92-.37,.35,0,.72,.16,1.09,.47,.48,.42,.98,.74,1.5,.97,.52,.23,1.08,.34,1.69,.34,.37,0,.73-.04,1.08-.11,.34-.07,.66-.19,.94-.36s.5-.38,.67-.65c.17-.27,.25-.61,.25-1.03,0-.69-.33-1.2-.98-1.53-.66-.33-1.62-.64-2.89-.94-.5-.13-1.01-.28-1.51-.45-.51-.18-.97-.42-1.39-.72-.42-.3-.75-.69-1.02-1.16s-.39-1.06-.39-1.76c0-.79,.16-1.47,.48-2.05,.32-.57,.74-1.04,1.26-1.4,.52-.36,1.11-.64,1.78-.81,.67-.18,1.35-.26,2.06-.26,.79,0,1.57,.11,2.33,.34,.76,.23,1.41,.58,1.95,1.06,.29,.23,.48,.45,.56,.66,.08,.21,.12,.38,.12,.53,0,.35-.11,.66-.34,.9-.23,.25-.54,.38-.94,.38-.31,0-.62-.15-.94-.44"/><path d="M90.97,84.96c0-.33,.05-.61,.16-.83s.23-.39,.39-.5c.16-.11,.32-.19,.48-.23,.17-.04,.31-.06,.44-.06s.27,.02,.44,.06c.17,.04,.33,.12,.48,.23,.16,.11,.29,.28,.39,.5,.1,.22,.16,.49,.16,.83v20.86c0,.35-.05,.63-.16,.84-.1,.21-.23,.37-.39,.48-.16,.11-.32,.19-.48,.23-.17,.04-.31,.06-.44,.06s-.27-.02-.44-.06c-.17-.04-.33-.12-.48-.23-.16-.11-.29-.28-.39-.48-.1-.21-.16-.49-.16-.84v-20.86Z"/><path d="M108.64,87.05c0,.54-.19,.99-.58,1.34-.39,.35-.85,.53-1.39,.53s-1-.18-1.37-.55c-.37-.36-.56-.81-.56-1.33s.19-.99,.56-1.36c.37-.36,.83-.55,1.37-.55s1,.18,1.39,.55c.38,.36,.58,.82,.58,1.36m-.5,18.77c0,.35-.05,.63-.16,.84s-.23,.37-.39,.48c-.16,.11-.32,.19-.48,.23-.17,.04-.31,.06-.44,.06s-.27-.02-.44-.06c-.17-.04-.33-.12-.48-.23-.16-.11-.29-.28-.39-.48-.1-.21-.16-.49-.16-.84v-12.05c0-.33,.05-.61,.16-.83,.1-.22,.23-.38,.39-.5,.16-.11,.32-.19,.48-.23,.17-.04,.31-.06,.44-.06s.27,.02,.44,.06c.17,.04,.33,.12,.48,.23,.16,.12,.29,.28,.39,.5s.16,.49,.16,.83v12.05Z"/><path d="M122.94,105.82c0,.35-.05,.63-.16,.84s-.23,.37-.39,.48c-.16,.11-.32,.19-.48,.23-.17,.04-.31,.06-.44,.06s-.27-.02-.44-.06c-.17-.04-.33-.12-.48-.23-.16-.11-.29-.28-.39-.48-.1-.21-.16-.49-.16-.84v-11.02h-1.84c-.29,0-.53-.05-.7-.14-.18-.09-.31-.2-.41-.33-.09-.12-.16-.25-.19-.39-.03-.13-.05-.25-.05-.36,0-.08,.02-.19,.05-.33,.03-.14,.09-.27,.19-.39,.09-.13,.23-.23,.41-.33,.18-.09,.41-.14,.7-.14h1.84v-3.09c0-.87,.1-1.68,.3-2.42,.2-.74,.52-1.38,.95-1.92,.44-.54,.99-.97,1.67-1.28s1.49-.47,2.45-.47c.81,0,1.36,.12,1.65,.37,.29,.25,.44,.57,.44,.97,0,.29-.1,.56-.31,.81-.21,.25-.57,.37-1.09,.37h-.47c-.54,0-.98,.09-1.31,.27-.33,.18-.6,.42-.81,.73-.21,.31-.35,.69-.42,1.13-.07,.44-.11,.91-.11,1.44v3.09h2.37c.29,0,.53,.05,.7,.14,.18,.09,.31,.2,.41,.33,.09,.12,.16,.25,.19,.39,.03,.14,.05,.24,.05,.33,0,.1-.02,.22-.05,.36-.03,.14-.09,.27-.19,.39-.09,.12-.23,.23-.41,.33-.18,.09-.41,.14-.7,.14h-2.37v11.02Z"/><path d="M137.28,100.67c.02,.62,.16,1.21,.42,1.76,.26,.55,.61,1.03,1.05,1.44,.44,.41,.94,.72,1.51,.95,.57,.23,1.18,.34,1.83,.34,.89,0,1.64-.16,2.23-.48,.59-.32,1.12-.69,1.58-1.11,.21-.19,.39-.31,.55-.37,.16-.06,.32-.09,.48-.09,.35,0,.65,.11,.89,.33,.24,.22,.36,.51,.36,.89,0,.12-.03,.28-.09,.47-.06,.19-.19,.39-.37,.59-1.44,1.48-3.31,2.22-5.62,2.22-1.13,0-2.17-.19-3.12-.56-.96-.37-1.78-.9-2.47-1.58-.69-.68-1.23-1.49-1.62-2.45-.39-.96-.59-2.02-.59-3.18s.19-2.2,.58-3.17c.38-.97,.92-1.8,1.61-2.48,.69-.69,1.5-1.22,2.43-1.61,.94-.39,1.95-.58,3.03-.58,1.87,0,3.44,.53,4.7,1.58,1.26,1.05,2.03,2.6,2.33,4.64,.04,.23,.06,.41,.06,.53v.44c0,1-.52,1.5-1.56,1.5h-10.18Zm8.8-2.19c-.02-.58-.12-1.13-.3-1.64-.18-.51-.44-.95-.78-1.33-.34-.37-.77-.67-1.28-.89-.51-.22-1.11-.33-1.79-.33-.62,0-1.21,.11-1.76,.33-.55,.22-1.03,.51-1.44,.89-.4,.38-.74,.82-1,1.33-.26,.51-.41,1.06-.45,1.64h8.8Z"/><path d="M43.37,50.89c.1,1.34,.45,2.57,1.05,3.68,.59,1.11,1.38,2.07,2.36,2.87,.98,.8,2.09,1.43,3.33,1.9,1.24,.47,2.53,.7,3.87,.7,1.96,0,3.58-.28,4.84-.85,1.27-.57,2.49-1.34,3.68-2.32,.67-.57,1.24-.93,1.7-1.09,.46-.15,.95-.23,1.47-.23,1.03,0,1.91,.34,2.63,1.01,.72,.67,1.09,1.58,1.09,2.71,0,.41-.1,.93-.31,1.55-.21,.62-.62,1.21-1.24,1.78-1.81,1.76-3.81,3.04-6,3.83-2.2,.8-4.79,1.2-7.79,1.2s-5.55-.45-7.98-1.36c-2.43-.9-4.53-2.18-6.31-3.83-1.78-1.65-3.18-3.68-4.18-6.08-1.01-2.4-1.51-5.13-1.51-8.17s.5-5.72,1.51-8.17c1.01-2.45,2.39-4.54,4.15-6.28,1.76-1.73,3.83-3.07,6.24-4.03,2.4-.95,5-1.43,7.79-1.43,2.22,0,4.34,.32,6.35,.97,2.01,.65,3.8,1.63,5.35,2.94,1.55,1.32,2.85,2.98,3.91,5,1.06,2.02,1.77,4.39,2.13,7.13,.05,.41,.09,.76,.12,1.05,.03,.28,.04,.58,.04,.89,0,1.65-.43,2.84-1.28,3.56-.85,.72-2.05,1.09-3.6,1.09h-23.4Zm19.06-6.66c0-1.19-.17-2.32-.5-3.41-.34-1.09-.86-2.04-1.59-2.87-.72-.82-1.64-1.48-2.75-1.98-1.11-.49-2.41-.73-3.91-.73-2.79,0-5.15,.84-7.09,2.52-1.94,1.68-3.01,3.84-3.22,6.47h19.06Z"/><path d="M100.67,64.68c-.54,.67-1.11,1.2-1.7,1.59-.59,.39-1.2,.64-1.82,.77-.62,.13-1.19,.19-1.7,.19-.57,0-1.15-.07-1.74-.19-.59-.13-1.19-.39-1.78-.77-.59-.39-1.16-.91-1.7-1.59-.54-.67-1.05-1.52-1.51-2.56l-11.31-26.42c-.41-.98-.62-1.86-.62-2.63,0-1.29,.45-2.35,1.36-3.18,.9-.83,2.03-1.24,3.37-1.24,.72,0,1.51,.22,2.36,.66,.85,.44,1.59,1.49,2.21,3.14l9.3,24.02h.15l9.53-24.1c.62-1.6,1.34-2.62,2.17-3.06,.83-.44,1.6-.66,2.32-.66,1.34,0,2.44,.41,3.29,1.24,.85,.83,1.28,1.83,1.28,3.02,0,.26-.04,.61-.12,1.05-.08,.44-.24,.97-.5,1.59l-11.31,26.58c-.47,1.03-.97,1.89-1.51,2.56"/><path d="M128.21,50.89c.1,1.34,.45,2.57,1.05,3.68,.59,1.11,1.38,2.07,2.36,2.87,.98,.8,2.09,1.43,3.33,1.9,1.24,.47,2.53,.7,3.87,.7,1.96,0,3.58-.28,4.84-.85,1.27-.57,2.49-1.34,3.68-2.32,.67-.57,1.24-.93,1.7-1.09,.46-.15,.95-.23,1.47-.23,1.03,0,1.91,.34,2.63,1.01,.72,.67,1.09,1.58,1.09,2.71,0,.41-.1,.93-.31,1.55-.21,.62-.62,1.21-1.24,1.78-1.81,1.76-3.81,3.04-6,3.83-2.2,.8-4.79,1.2-7.79,1.2s-5.55-.45-7.98-1.36c-2.43-.9-4.53-2.18-6.31-3.83-1.78-1.65-3.18-3.68-4.18-6.08-1.01-2.4-1.51-5.13-1.51-8.17s.5-5.72,1.51-8.17c1.01-2.45,2.39-4.54,4.15-6.28,1.76-1.73,3.83-3.07,6.24-4.03,2.4-.95,5-1.43,7.79-1.43,2.22,0,4.34,.32,6.35,.97,2.01,.65,3.8,1.63,5.35,2.94,1.55,1.32,2.85,2.98,3.91,5,1.06,2.02,1.77,4.39,2.13,7.13,.05,.41,.09,.76,.12,1.05,.03,.28,.04,.58,.04,.89,0,1.65-.43,2.84-1.28,3.56-.85,.72-2.05,1.09-3.6,1.09h-23.4Zm19.06-6.66c0-1.19-.17-2.32-.5-3.41-.34-1.09-.86-2.04-1.59-2.87-.72-.82-1.64-1.48-2.75-1.98-1.11-.49-2.41-.73-3.91-.73-2.79,0-5.15,.84-7.09,2.52-1.94,1.68-3.01,3.84-3.22,6.47h19.06Z"/><path d="M174.66,64.72c-.34,.7-.75,1.23-1.24,1.59-.49,.36-1.01,.61-1.55,.74-.54,.13-1,.19-1.36,.19-.41,0-.88-.07-1.4-.19-.52-.13-1.02-.37-1.51-.74-.49-.36-.9-.89-1.24-1.59-.34-.7-.5-1.59-.5-2.67v-28.43c0-1.03,.17-1.87,.5-2.52,.33-.64,.74-1.15,1.2-1.51,.46-.36,.94-.61,1.43-.74,.49-.13,.92-.19,1.28-.19s.8,.07,1.32,.19c.52,.13,1.01,.37,1.47,.74,.46,.36,.86,.86,1.2,1.51,.34,.65,.5,1.49,.5,2.52v1.94h.15c.72-2.02,1.95-3.73,3.68-5.15,1.73-1.42,3.73-2.13,6-2.13,1.39,0,2.54,.35,3.45,1.05,.9,.7,1.36,1.72,1.36,3.06,0,1.19-.39,2.23-1.16,3.14-.77,.9-2.07,1.36-3.87,1.36-2.95,0-5.22,1-6.82,2.98-1.6,1.99-2.4,4.53-2.4,7.63v14.57c0,1.09-.17,1.98-.5,2.67"/><path d="M194.38,33.53c0-1.03,.17-1.87,.5-2.52,.34-.64,.74-1.14,1.2-1.47,.47-.34,.94-.57,1.43-.7,.49-.13,.92-.19,1.28-.19s.79,.06,1.28,.19c.49,.13,.97,.36,1.43,.7,.47,.34,.86,.83,1.2,1.47,.34,.65,.5,1.49,.5,2.52v1.78h.15c.83-1.86,2.26-3.5,4.3-4.92,2.04-1.42,4.45-2.13,7.24-2.13,2.43,0,4.51,.43,6.24,1.28,1.73,.85,3.15,1.98,4.26,3.37,1.11,1.4,1.92,3,2.44,4.8,.52,1.81,.77,3.67,.77,5.58v18.75c0,1.09-.17,1.98-.5,2.67-.34,.7-.75,1.23-1.24,1.59-.49,.36-1.01,.61-1.55,.74-.54,.13-.99,.19-1.36,.19-.41,0-.88-.07-1.39-.19-.52-.13-1.02-.38-1.51-.74-.49-.36-.9-.89-1.24-1.59-.34-.7-.5-1.59-.5-2.67v-16.11c0-1.09-.08-2.22-.23-3.41-.15-1.19-.49-2.26-1.01-3.22-.52-.95-1.23-1.74-2.13-2.36-.9-.62-2.11-.93-3.6-.93s-2.79,.3-3.87,.89c-1.08,.59-1.98,1.36-2.67,2.29-.7,.93-1.23,2-1.59,3.22-.36,1.22-.54,2.44-.54,3.68v15.96c0,1.09-.17,1.98-.5,2.67-.34,.7-.75,1.23-1.24,1.59-.49,.36-1.01,.61-1.55,.74-.54,.13-.99,.19-1.36,.19-.41,0-.88-.07-1.4-.19-.52-.13-1.02-.38-1.51-.74-.49-.36-.9-.89-1.24-1.59-.34-.7-.5-1.59-.5-2.67v-28.51Z"/><path d="M246.91,50.89c.1,1.34,.45,2.57,1.05,3.68,.59,1.11,1.38,2.07,2.36,2.87,.98,.8,2.09,1.43,3.33,1.9,1.24,.47,2.53,.7,3.87,.7,1.96,0,3.58-.28,4.84-.85,1.27-.57,2.49-1.34,3.68-2.32,.67-.57,1.24-.93,1.7-1.09,.46-.15,.95-.23,1.47-.23,1.03,0,1.91,.34,2.63,1.01,.72,.67,1.09,1.58,1.09,2.71,0,.41-.1,.93-.31,1.55-.21,.62-.62,1.21-1.24,1.78-1.81,1.76-3.81,3.04-6,3.83-2.2,.8-4.79,1.2-7.79,1.2s-5.55-.45-7.98-1.36c-2.43-.9-4.53-2.18-6.31-3.83-1.78-1.65-3.18-3.68-4.18-6.08-1.01-2.4-1.51-5.13-1.51-8.17s.5-5.72,1.51-8.17c1.01-2.45,2.39-4.54,4.15-6.28,1.76-1.73,3.83-3.07,6.24-4.03,2.4-.95,5-1.43,7.79-1.43,2.22,0,4.34,.32,6.35,.97,2.01,.65,3.8,1.63,5.35,2.94,1.55,1.32,2.85,2.98,3.91,5,1.06,2.02,1.77,4.39,2.13,7.13,.05,.41,.09,.76,.12,1.05,.03,.28,.04,.58,.04,.89,0,1.65-.43,2.84-1.28,3.56-.85,.72-2.05,1.09-3.6,1.09h-23.4Zm19.06-6.66c0-1.19-.17-2.32-.5-3.41s-.86-2.04-1.59-2.87c-.72-.82-1.64-1.48-2.75-1.98-1.11-.49-2.41-.73-3.91-.73-2.79,0-5.15,.84-7.09,2.52-1.94,1.68-3.01,3.84-3.22,6.47h19.06Z"/><path class="b" d="M284.96,35.16c-2.37,.12-5.42,1.12-5.77-2.58-.36-3.81,2.94-4.04,5.49-4.23,6.14-.47,11.55,1.4,15.98,5.87,6.69,6.75,13.49,13.4,20.05,20.27,3.91,4.09,8.17,6.74,14.02,5.76,2.29-.38,4.38,0,4.74,2.69,.36,2.71-1.79,3.63-3.91,3.99-6.81,1.16-12.73-.8-17.63-5.69-7.13-7.12-14.21-14.28-21.27-21.47-3.25-3.31-7.01-5.12-11.71-4.59"/><path d="M334.1,35.21c-5.52-.58-9.24,1.62-12.69,4.94-2.05,1.97-4.2,6.52-7.64,2.7-3.28-3.64,1.3-5.53,3.21-7.7,4.4-4.99,10.04-7.31,16.65-6.82,2.59,.19,5.96,.32,5.85,3.91-.12,3.85-3.29,3.35-5.38,2.97"/><path d="M284.7,60.3c5.58,.53,9.26-1.8,12.69-5.14,1.96-1.91,4.03-6.07,7.28-2.76,3.47,3.53-.86,5.59-2.82,7.77-4.44,4.93-9.99,7.53-16.65,7.01-2.7-.21-6.39-.11-6.05-4.26,.33-4.06,3.62-2.88,5.56-2.61"/></svg>