<svg xmlns="http://www.w3.org/2000/svg" id="Layer_2" viewBox="0 0 463 178.3"><defs><style>      .st0 {        fill: none;        stroke: #fff;        stroke-miterlimit: 10;      }      .st1 {        fill: #046031;      }      .st2 {        fill: #fff;      }    </style></defs><g id="Layer_1-2"><path class="st1" d="M156.8,15.6c0-.8-.8-2.8-1.2-3h.4C82.7-16.1,0,13.1,0,13.1v68c0,4.4.6,8.8,1.5,13.1,4.4,20.5,14.7,37.7,29.3,52.5,13.4,13.6,29.2,23.6,46.5,31.4.7.3,1.7.2,2.4-.2,6.5-3.4,13.2-6.5,19.4-10.3,20.2-12.2,36.6-28.1,47.4-49.4,6.6-13,10.5-26.7,10.2-41.5-.3-20.4,0-40.8,0-61.2h.1Z"></path><g><path class="st2" d="M31.2,57.8v-13.5h-2.4v-3.5h5.9v17h-3.5Z"></path><path class="st2" d="M48.9,43.1v12.5l-2.2,2.2h-6.8l-2.2-2.2v-3h3.5v1.7h4.3v-3.2h-5.6l-2.2-2.2v-5.8l2.2-2.2h6.8l2.2,2.2h0ZM41.1,44.4v3.2h4.3v-3.2h-4.3Z"></path></g><g><path class="st2" d="M103.2,57.8l6.9-13.5h-6.6v-3.5h10.4v3.5l-6.9,13.5h-3.8Z"></path><path class="st2" d="M119,57.8l-2.2-2.2v-5.1l1.2-1.2-1.2-1.2v-5.1l2.2-2.2h6.8l2.2,2.2v5.1l-1.2,1.2,1.2,1.2v5.1l-2.2,2.2h-6.8ZM124.6,47.6v-3.2h-4.3v3.2h4.3ZM124.6,54.3v-3.2h-4.3v3.2h4.3Z"></path></g><g><g><g><path class="st2" d="M59,123.8c1.6-1.9,3.3-3.8,4.9-5.7,1.1,1.2,1,3.2-.3,4.5-2.1,2.1-4.6,3.5-7.4,4.2-.6.2-1.3.3-2,.4.2-1.7.6-3.3,1.3-4.7.8-1.8,1.9-3.4,3.3-4.8,1-1,2.3-1.3,3.4-.8"></path><path class="st2" d="M39.7,108.1c2.8.8,5.6,1.7,8.4,2.5-.6,1.1-1.4,1.7-2.5,1.8-4.2.3-8.4-2.6-9.5-6.7,3.4-1,6.7-1,10,0,1.3.4,2.1,1.3,2.4,2.8"></path><path class="st2" d="M40,86c.8,2.4,1.6,4.7,2.4,7.1-1.3,0-2.3-.4-3-1.4-1.7-2.5-2-5.2-1.1-8,.3-.9.7-1.8,1.1-2.7,3.4,1.9,6,4.6,6,9.1s-.3,1.5-1,2.1"></path><path class="st2" d="M47.6,75.6c-.9,2.2-1.8,4.4-2.7,6.6-.7-.8-.7-1.6-.6-2.4.2-3.6,3-7,6.5-7.8h.3c1.2,3.8.8,7.2-1.5,10.4-.6.8-1.6,1.2-2.9,1"></path><path class="st2" d="M56.7,70.6c-.9,1.6-1.7,3.2-2.6,4.9-.4-.6-.4-1.3-.3-1.9.4-2.7,2.9-5.1,5.7-5.5h.2c.6,3,0,5.6-2,7.9-.5.6-1.3.7-2.3.5"></path><path class="st2" d="M64.3,69.9c-.9,1-1.7,2-2.6,3.1-.2-.5,0-1,0-1.4.7-1.9,2.8-3.2,4.8-3h.2c0,2.2-.8,4-2.6,5.3-.5.3-1,.3-1.7,0"></path><path class="st2" d="M37,97c1.3,1.9,2.6,3.7,4,5.6-1.3.5-2.7,0-3.6-1-1.4-1.7-2.3-3.7-2.6-5.9,0-1,0-2.1-.2-3.2,3.1.9,5.8,2.3,7.8,4.7s1.1,2.9.2,4.1"></path><path class="st2" d="M47.5,117.8h7.1c0,1-1.2,2.1-2.4,2.1-3.5.2-6.6-1-9.5-3.2,1.7-1.4,3.5-2.3,5.5-2.8,1.2-.3,2.4-.4,3.6-.4s2.4.9,2.8,2.1"></path></g><g><path class="st2" d="M91.2,118.2c-1.1,1.2-1,3.2.3,4.5,2.1,2.1,4.6,3.5,7.4,4.2.6.2,1.3.3,2,.4-.2-1.7-.6-3.3-1.3-4.7-.8-1.8-1.9-3.4-3.3-4.8s-2.3-1.3-3.4-.8c1.6,1.8,3.1,3.6,4.7,5.5"></path><path class="st2" d="M106.9,110.7c.6,1.1,1.4,1.7,2.5,1.8,4.2.3,8.4-2.6,9.5-6.7-3.4-1-6.7-1-10,0-1.3.4-2.1,1.3-2.4,2.8,2.8-.8,5.5-1.6,8.2-2.4"></path><path class="st2" d="M112.7,93.1c1.3,0,2.3-.4,3-1.4,1.7-2.5,2-5.2,1.1-8-.3-.9-.7-1.8-1.1-2.7-3.4,1.9-6,4.6-6,9.1s.3,1.5,1,2.1c.8-2.3,1.5-4.6,2.3-6.9"></path><path class="st2" d="M110.2,82.3c.7-.8.7-1.6.6-2.4-.2-3.6-3-7-6.5-7.8h-.3c-1.2,3.8-.8,7.2,1.5,10.4.6.8,1.6,1.2,2.9,1-.9-2.3-1.9-4.7-2.8-7"></path><path class="st2" d="M101,75.4c.4-.6.4-1.3.3-1.9-.4-2.7-2.9-5.1-5.7-5.5h-.2c-.6,3,0,5.6,2,7.9.5.6,1.3.7,2.3.5-.9-1.7-1.8-3.4-2.8-5.2"></path><path class="st2" d="M93.3,73c.2-.5,0-1,0-1.4-.7-1.9-2.8-3.2-4.8-3h-.2c0,2.2.8,4,2.6,5.3.5.3,1,.3,1.7,0-.9-1.1-1.8-2.2-2.7-3.3"></path><path class="st2" d="M114.1,102.6c1.3.5,2.7,0,3.6-1,1.4-1.7,2.3-3.7,2.6-5.9,0-1,0-2.1.2-3.2-3.1.9-5.8,2.3-7.8,4.7s-1.1,2.9-.2,4.1c1.3-1.8,2.6-3.6,3.9-5.5"></path><path class="st2" d="M100.4,117.8c0,1,1.2,2.1,2.4,2.1,3.5.2,6.6-1,9.5-3.2-1.7-1.4-3.5-2.3-5.5-2.8-1.2-.3-2.4-.4-3.6-.4s-2.4.9-2.8,2.1h7.2"></path></g></g><g><path class="st2" d="M85.1,90.7c0-.4.3-.8.6-1.1s.9-.6,1.5-.7c0,.5,0,.9,0,1.4.3,3.8,1.9,6.9,4.8,9.5,0,0,0,0,.2,0h0c-.3,0-.7-.2-1-.4-2.7-1.1-4.6-2.9-5.6-5.7-.3-.7-.4-1.4-.5-2.2h0v-1h0Z"></path><path class="st2" d="M92.4,88c0-1.1.8-2,1.8-2.2,1.1-.2,2.2.4,2.6,1.4.2.4,0,.8,0,1.3,0,1.4-.2,2.8-.4,4.2-.2,2.1-.5,4.2-1,6.3,0,.3-.2.6-.3.9,0,.2-.3.4-.5.4s-.5,0-.5-.4c-.2-.7-.4-1.4-.5-2.1-.3-1.7-.5-3.3-.7-5-.2-1.6-.3-3.1-.5-4.7h0Z"></path><path class="st2" d="M96.7,98.8c.2-.9.3-1.8.5-2.7,0-1,.3-1.9.4-2.9,0-.9.2-1.8.3-2.6,0-.9,0-1.7.2-2.6v-1c.6-.2,1.1-.2,1.7,0,1,.3,1.6,1.3,1.4,2.3,0,.9-.2,1.8-.4,2.7-.4,2.2-1.4,4.1-2.9,5.8l-1,1c-.3.3,0,0,0,0h0Z"></path><path class="st2" d="M92.7,98.8c-.3-.3-.7-.6-1-.9-1.6-1.7-2.6-3.7-3.1-6,0-.7-.2-1.4-.3-2.1v-.5c-.2-1.1.6-2.2,1.8-2.4.5,0,.9,0,1.4,0v2.3c0,.9.2,1.7.2,2.6,0,1,.2,2,.4,2.9.2,1.1.4,2.2.6,3.3,0,.2,0,.5,0,.7h0Z"></path><path class="st2" d="M102.2,88.9c1,0,2.1.9,2.1,2.1,0,2.7-1.1,4.9-3.1,6.7-1.2,1.1-2.5,1.8-4,2.2h0c.2-.2.3-.3.5-.4,2.1-1.9,3.6-4.3,4.2-7.1.2-.7.2-1.4.3-2.2,0-.5,0-.9.2-1.4h0Z"></path><path class="st2" d="M99.7,100.1c0,.5,0,.9-.3,1.4-.4.7-1.1,1.2-2,1.2h-5.7c-1.9,0-2.3-1.1-2.2-2.4v-.2c0,0,.3,0,.4.2,1,.5,2.2.8,3.3,1.1.2,0,.5,0,.7.2.4,0,.7,0,1.1,0,1-.2,2-.5,2.9-.8.6-.2,1.1-.4,1.6-.7h.2Z"></path></g><g><path class="st2" d="M70.3,86.5h-5.1c-2.4,0-2.3,2.8-2.3,2.8v1.2c0,1.2-.5,2-.5,2,1,7.7-4.6,10.6-4.6,10.6,11.5,1,11.1-7.9,11.1-7.9v-5.4c0-2.4,1.5-2,1.5-2,.9-.7,0-1.2,0-1.2h-.1ZM65.8,89.8c-.3,0-.6-.3-.6-.6s.3-.6.6-.6.6.3.6.6-.3.6-.6.6Z"></path><path class="st2" d="M61.1,92.5c-9.5,1-9.6,9.3-9.6,9.3h-1.2c-.6,0-.5.2-.5.2-.4,1.1.9,1,.9,1h3.8c8.3-2.5,6.6-10.5,6.6-10.5Z"></path></g><line class="st0" x1="78" y1="114.5" x2="78" y2="80.8"></line></g><path class="st2" d="M94.4,41.9c-.2-.7-.8-1.2-1.6-1.4-.8,0-1.6-.3-2.5-.4-2.1-.4-4.3-.7-6.4-1.1-.2,0-.4,0-.5-.3-.6-1.2-1.2-2.4-1.8-3.6-.8-1.5-1.5-3-2.3-4.5-.4-.8-1.2-1.4-2.2-1.2-.7.1-1.2.6-1.5,1.2-1.3,2.7-2.7,5.3-4.1,8,0,.2-.3.3-.5.4-.9,0-1.8.3-2.6.4-2,.3-4,.7-6,1-.6,0-1.2.3-1.6.9,0,.2-.2.5-.3.7v.9c.2.5.6.9.9,1.3,2,2,4,4.1,6,6.1,0,0,.2.2.2.4,0,.3,0,.6,0,.9-.2,1.4-.4,2.8-.6,4.1-.2,1.2-.4,2.5-.6,3.7,0,.7,0,1.4.4,2,.7.8,1.6,1,2.6.5,2.7-1.4,5.3-2.7,8-4.1h.5c2.6,1.4,5.3,2.7,7.9,4,.3,0,.6.2.9.3,1.3.2,2.4-1,2.2-2.3-.2-1.2-.4-2.4-.6-3.7-.3-1.7-.5-3.4-.8-5.1,0-.4,0-.7.3-1,.7-.6,1.3-1.3,1.9-1.9,1.4-1.4,2.8-2.9,4.3-4.3.6-.6.8-1.3.5-2.1h0v.2ZM81.1,43h0c0,0,0,.2-.2.2h-1.2s0,0,0,0h1.3ZM80.5,41.8h0c-.2.2-.5.3-.7.4,0,0-.2,0-.2,0h0c.2,0,.5-.2.7-.3h.2ZM79,41.2c.3-.3.5-.5.8-.8h.2v.2c-.3.3-.5.5-.8.8h0v-.2ZM78.4,40.2v-.2c0-.1,0,0,0,0h0c0,.4-.2.6-.3.9h0c0,0-.2,0,0-.2,0-.2.2-.4.2-.6h.1ZM77.3,39.3h0v1.3h0v-1.3h0ZM76.1,39.9h0v.2c0,.2.2.4.2.6h0c0,0,0,0,0,0v-.2c0-.2,0-.3-.2-.5h0v-.2ZM74.7,40.4h.2c.3.3.5.5.8.8h0c-.3-.2-.5-.4-.8-.7v-.2h-.2ZM74.4,41.7c.2,0,.5.2.7.3h0q0,0,0,0h0c-.2,0-.5-.2-.7-.3,0,0,0,0,0-.2s0,0,.2,0h0ZM73.7,43h1.1c0,.2,0,0,0,0h-1.1ZM81.6,46.1c0,.2,0,.3-.3.3h-2.7v6c0,.2,0,.3-.3.3h-1.7c-.2,0-.3,0-.3-.3v-6h-2.7c-.2,0-.3,0-.3-.3v-1.8c0-.2,0-.3.3-.3h2.7v-2.2c0-.2,0-.3.3-.3h1.8c.2,0,.3,0,.3.3v2h0c0,0,0,0,0,0h2.5c.2,0,.3,0,.3.3v1.7h0v.2Z"></path><g><path class="st2" d="M15.9,112.8c-1.1-.2-1.8-.9-2.3-1.8-.9-1.7-.3-3.9,1.5-4.8,1.8-1,4-.4,4.9,1.3.3.6.5,1.2.4,2.1l-1.7.6h0c.2-.6,0-1.2-.2-1.6-.4-.8-1.4-1.3-2.4-.7-1.1.6-1.1,1.6-.7,2.4.4.7,1.2,1.3,2,1.3h0l-1.5,1.2h0Z"></path><path class="st2" d="M27.3,119.1l-6,4.2-1.1-1.6,2.4-1.7-1-1.4-2.4,1.7-1.1-1.6,6-4.2,1.1,1.6-2.3,1.6,1,1.4,2.3-1.6,1.1,1.6Z"></path><path class="st2" d="M28.7,132.3l.3-.7-1.9-2.2-.7.2-1.4-1.6,7.8-2.1.5.6-3.3,7.2-1.3-1.6h0v.2ZM29.7,130.2l.8-1.7-1.8.5,1,1.2h0Z"></path><path class="st2" d="M43.3,136.7l-5,5.3-.6-.5v-4l-2,2.1-1.4-1.3,5-5.3.6.5-.2,4.2,2.2-2.3,1.4,1.3h0Z"></path><path class="st2" d="M50.6,147l-2.6,3.2-.6-.5v-.9c-.7,0-1.4-.2-1.9-.6-1.3-1-1.8-3.1-.3-4.9,1.3-1.6,3.5-1.9,5.1-.6.5.4.9.9,1.1,1.7l-1.4,1.2h0c0-.6-.4-1.1-.8-1.4-.7-.6-1.8-.6-2.5.3-.9,1.1-.7,2.1,0,2.5.5.4,1.3.4,1.8-.2l.8-1,1.5,1.2h0Z"></path><path class="st2" d="M56.9,156.5l-3.8-2.5,4.1-6,3.8,2.5-.9,1.4-2.2-1.5-.7,1,1.6,1.1-.8,1.2-1.6-1.1-.7,1.1,2.2,1.5-.9,1.4h0Z"></path></g><g><path class="st2" d="M103.4,151.8c.5.9.4,2.2-1,2.9l-2.9,1.6-3.5-6.4,3-1.6c1.1-.6,2.2-.1,2.7.7.3.5.3,1.1,0,1.6.7.1,1.2.6,1.5,1.1h.1ZM101.9,152.4c-.2-.3-.6-.5-1.1-.2l-.6-1c.5-.3.5-.7.4-1-.2-.3-.6-.5-1-.3l-1,.6,1.9,3.5,1-.5c.5-.3.6-.7.4-1h0Z"></path><path class="st2" d="M113.7,146.6l-3.8,2.5-4.1-6,3.8-2.5.9,1.4-2.2,1.5.7,1,1.7-1.1.8,1.2-1.7,1.1.7,1.1,2.2-1.5.9,1.4h0Z"></path><path class="st2" d="M120.1,135.2l2.6,3.2-.6.5-.8-.2c0,.7-.4,1.3-1,1.8-1.2,1-3.4,1.1-4.9-.7-1.3-1.5-1.1-3.8.4-5.1.5-.4,1-.7,1.9-.7l.9,1.6h0c-.6,0-1.1.2-1.6.5-.7.6-1,1.6-.2,2.5.9,1.1,1.9,1.1,2.4.6.5-.4.6-1.2,0-1.8l-.8-.9,1.5-1.2h0Z"></path><path class="st2" d="M127.5,133.4l-5.2-5.1,1.3-1.4,5.2,5.1-1.3,1.4h0Z"></path><path class="st2" d="M130.7,117.7l5.8,4.4-.5.6-4,.5,2.3,1.8-1.1,1.5-5.8-4.4.5-.6,4.2-.3-2.6-1.9,1.1-1.5h.1Z"></path><path class="st2" d="M140.5,110.6c1.5.8,1.5,2.1.9,3.3-.6,1.1-1.7,2.1-2.5,2.3l-1.5-1.2h0c1-.2,2-1,2.3-1.8.2-.5.2-.9,0-1-1-.5-2.1,2.8-4.2,1.7-1.3-.6-1.3-2-.7-3.2.4-.7,1-1.4,1.7-1.8l1.5,1.1h0c-.8.3-1.3.7-1.5,1.2s-.2.9,0,1c.8.4,2.2-2.6,4.1-1.6h-.1Z"></path></g><path class="st0" d="M133.5,34.3c0-.6-.6-2-.8-2.1h.3c-18.4-7.2-37.7-9.2-54.9-8.8-30.7.7-54.7,9.1-54.7,9.1v47.8c0,3.1.4,6.2,1,9.2,3.1,14.4,10.3,26.5,20.6,36.9,9.4,9.6,33.9,22.2,34.4,22,4.6-2.4,9.3-4.6,13.7-7.2,14.2-8.6,25.7-19.8,33.3-34.7,4.7-9.1,7.3-18.7,7.2-29.2-.2-14.3,0-28.7,0-43h0Z"></path><g><path class="st2" d="M66,10.5v7.3h-1.9v-3h-1.7v3h-1.9v-7.3h1.9v2.8h1.7v-2.8s1.9,0,1.9,0Z"></path><path class="st2" d="M75.7,17.7h-4.5v-7.3h4.5v1.6h-2.6v1.3h2v1.5h-2v1.3h2.6v1.6Z"></path><path class="st2" d="M86.3,17.7h-2.1l-1.2-2.8v-.8h.4c.5,0,.7-.5.7-.9s-.3-1.1-.9-1.1h-.6v5.6h-1.9v-7.3h2.9c1.6,0,2.5,1.3,2.5,2.6s-.4,1.7-1.2,2.1l1.4,2.6h0Z"></path><path class="st2" d="M95.7,17.7h-4.5v-7.3h4.5v1.6h-2.6v1.3h2v1.5h-2v1.3h2.6v1.6Z"></path></g><g><path class="st1" d="M209.2,33.5c0,1.7-.3,3.2-.9,4.6-.6,1.4-1.4,2.6-2.5,3.5-1.1,1-2.3,1.8-3.8,2.3s-3.1.8-4.9.8h-6.9c-1.5,0-2.3-.3-2.3-.9s0-.5.3-.6.4-.3.6-.5.4-.4.6-.7c.2-.3.3-.6.3-1.1v-14.7c0-.5,0-.8-.3-1.1-.2-.3-.4-.5-.6-.7-.2-.2-.4-.4-.6-.5s-.3-.4-.3-.6c0-.6.8-.9,2.3-.9h6.9c1.8,0,3.4.3,4.9.8s2.8,1.3,3.8,2.3c1.1,1,1.9,2.2,2.5,3.5.6,1.4.9,2.9.9,4.6h0ZM203.9,33.5c0-1.4-.2-2.8-.5-4-.4-1.2-.9-2.2-1.5-3-.7-.8-1.5-1.5-2.4-1.9-.9-.5-2-.7-3.1-.7h-1.4c-.3,0-.5.2-.5.5v18.1c0,.3.2.5.5.5h1.4c1.1,0,2.2-.2,3.1-.7.9-.5,1.7-1.1,2.4-1.9.7-.8,1.2-1.8,1.5-3s.5-2.5.5-4h0Z"></path><path class="st1" d="M228.2,28.1c0,.2,0,.4-.2.6-.1.1-.3.2-.5.2-.3,0-.6-.2-.8-.7-.3-.8-.7-1.5-1.1-2.1-.4-.6-.8-1-1.3-1.3s-1.1-.6-1.7-.7c-.6-.1-1.4-.2-2.3-.2h-2.4c-.3,0-.5.2-.5.5v7.3c0,.3.2.5.5.5h1.6c1.6,0,2.7-.8,3.4-2.4.1-.4.4-.6.7-.6s.6.2.6.7v6.1c0,.4-.2.7-.6.7s-.5-.2-.7-.6c-.6-1.6-1.7-2.4-3.4-2.4h-1.6c-.3,0-.5.2-.5.5v8.3c0,.3.2.5.5.5h2.4c1,0,1.8,0,2.5-.3s1.3-.5,1.9-.8c.5-.4,1-.9,1.4-1.5s.8-1.4,1.1-2.3c.1-.5.4-.7.8-.7s.7.3.7.8v4.6c0,1.2-.6,1.8-1.8,1.8h-13.6c-1.5,0-2.3-.3-2.3-.9s0-.5.3-.6.4-.3.6-.5.4-.4.6-.7c.2-.3.3-.6.3-1.1v-14.7c0-.5,0-.8-.3-1.1-.2-.3-.4-.5-.6-.7-.2-.2-.4-.4-.6-.5s-.3-.4-.3-.6c0-.6.8-.9,2.3-.9h13.2c1.2,0,1.8.6,1.8,1.8v3.9h0Z"></path><path class="st1" d="M254.1,38.3v4.6c0,1.2-.6,1.8-1.8,1.8h-13.3c-1.5,0-2.3-.3-2.3-.9s0-.5.3-.6.4-.3.6-.5.4-.4.6-.7c.2-.3.3-.6.3-1.1v-14.7c0-.5,0-.8-.3-1.1-.2-.3-.4-.5-.6-.7-.2-.2-.4-.4-.6-.5s-.3-.4-.3-.6c0-.6.8-.9,2.3-.9h3.7c1.5,0,2.3.3,2.3.9s0,.5-.3.6c-.2.2-.4.3-.6.5s-.4.4-.6.7c-.2.3-.3.6-.3,1.1v16.4c0,.3.2.5.5.5h2.3c.9,0,1.7,0,2.4-.3.7-.2,1.3-.5,1.8-.8.5-.4,1-.9,1.4-1.5s.7-1.4,1.1-2.3c.1-.5.4-.7.7-.7s.7.3.7.8h0Z"></path><path class="st1" d="M268.3,38.3h-7.8c-.4,0-.7.2-.8.5l-.7,1.8c-.2.6-.3,1-.1,1.3.1.3.3.5.6.7s.5.4.8.5.4.4.4.7c0,.6-.8.9-2.3.9h-1.3c-1.5,0-2.3-.3-2.3-.9s0-.5.2-.6c.1,0,.3-.3.6-.5.2-.2.5-.4.7-.7.3-.3.5-.7.7-1.2l5.9-14.2c.2-.5.3-1,.2-1.3s-.2-.6-.4-.8c-.2-.2-.4-.4-.6-.6s-.3-.4-.3-.7c0-.6.6-.9,1.7-.9h1.8c.7,0,1.2.1,1.7.4.4.2.7.7,1,1.2l7.1,17c.2.5.5.9.7,1.2.3.3.5.5.7.7s.4.3.6.5c.1,0,.2.3.2.6,0,.6-.8.9-2.3.9h-4.4c-1.5,0-2.3-.3-2.3-.9s.1-.5.4-.7.5-.3.8-.5.5-.4.6-.7.1-.7-.1-1.3l-.8-1.8c0-.2-.2-.3-.3-.4s-.3,0-.5,0h-.1ZM268.3,36.7l-3.9-9.6-3.9,9.6h7.8Z"></path><path class="st1" d="M300.7,26.6c0,.6-.2,1.1-.5,1.5-.4.4-.8.6-1.4.6s-1.5-.4-2-1.2c-.2-.5-.5-.9-.7-1.4-.3-.5-.6-.9-.9-1.3s-.7-.7-1.2-.9-1-.4-1.6-.4c-.9,0-1.6.3-2.2.8s-.8,1.2-.8,2,.3,1.4.9,2,1.4,1,2.3,1.5,1.9.9,3,1.4,2.1,1,3,1.7c.9.6,1.7,1.4,2.3,2.3.6.9.9,2,.9,3.3s-.2,1.8-.7,2.7c-.4.8-1,1.5-1.8,2.1s-1.7,1.1-2.7,1.4c-1.1.3-2.2.5-3.4.5s-2.4,0-3.5-.4c-1.1-.3-2-.7-2.7-1.2s-1.3-1.1-1.8-1.8c-.4-.7-.6-1.5-.6-2.3s.2-1.2.6-1.6c.4-.4.9-.6,1.6-.6,1,0,1.7.4,2.2,1.3.2.6.5,1.2.7,1.8s.5,1.1.9,1.6c.3.5.7.9,1.3,1.1s1.1.4,1.9.4,2-.3,2.7-.9c.7-.6,1.1-1.4,1.1-2.4s-.3-1.6-.9-2.2c-.6-.6-1.4-1.1-2.3-1.6s-1.9-.9-2.9-1.4-2-1-2.9-1.6-1.7-1.3-2.3-2.1c-.6-.8-.9-1.9-.9-3.1s.2-1.7.6-2.5.9-1.4,1.6-2,1.5-1,2.5-1.3,2-.5,3.1-.5,2.1.1,3,.4,1.7.6,2.4,1,1.2.9,1.6,1.5.6,1.2.6,1.9h-.1Z"></path><path class="st1" d="M316,38.3h-7.8c-.4,0-.7.2-.8.5l-.7,1.8c-.2.6-.3,1-.1,1.3.1.3.3.5.6.7s.5.4.8.5.4.4.4.7c0,.6-.8.9-2.3.9h-1.3c-1.5,0-2.3-.3-2.3-.9s0-.5.2-.6c.1,0,.3-.3.6-.5.2-.2.5-.4.7-.7.3-.3.5-.7.7-1.2l5.9-14.2c.2-.5.3-1,.2-1.3s-.2-.6-.4-.8c-.2-.2-.4-.4-.6-.6s-.3-.4-.3-.7c0-.6.6-.9,1.7-.9h1.8c.7,0,1.2.1,1.7.4.4.2.7.7,1,1.2l7.1,17c.2.5.5.9.7,1.2.3.3.5.5.7.7s.4.3.6.5c.1,0,.2.3.2.6,0,.6-.8.9-2.3.9h-4.4c-1.5,0-2.3-.3-2.3-.9s.1-.5.4-.7.5-.3.8-.5.5-.4.6-.7.1-.7-.1-1.3l-.8-1.8c0-.2-.2-.3-.3-.4s-.3,0-.5,0h-.1ZM316,36.7l-3.9-9.6-3.9,9.6h7.8Z"></path><path class="st1" d="M343,38.3v4.6c0,1.2-.6,1.8-1.8,1.8h-13.3c-1.5,0-2.3-.3-2.3-.9s0-.5.3-.6.4-.3.6-.5.4-.4.6-.7.3-.6.3-1.1v-14.7c0-.5,0-.8-.3-1.1-.2-.3-.4-.5-.6-.7s-.4-.4-.6-.5-.3-.4-.3-.6c0-.6.8-.9,2.3-.9h3.7c1.5,0,2.3.3,2.3.9s0,.5-.3.6c-.2.2-.4.3-.6.5s-.4.4-.6.7c-.2.3-.3.6-.3,1.1v16.4c0,.3.2.5.5.5h2.3c.9,0,1.7,0,2.4-.3.7-.2,1.3-.5,1.8-.8.5-.4,1-.9,1.4-1.5s.7-1.4,1.1-2.3c.1-.5.4-.7.7-.7s.7.3.7.8h0Z"></path><path class="st1" d="M361.9,38.3v4.6c0,1.2-.6,1.8-1.8,1.8h-13.3c-1.5,0-2.3-.3-2.3-.9s0-.5.3-.6.4-.3.6-.5.4-.4.6-.7.3-.6.3-1.1v-14.7c0-.5,0-.8-.3-1.1-.2-.3-.4-.5-.6-.7s-.4-.4-.6-.5-.3-.4-.3-.6c0-.6.8-.9,2.3-.9h3.7c1.5,0,2.3.3,2.3.9s0,.5-.3.6c-.2.2-.4.3-.6.5s-.4.4-.6.7c-.2.3-.3.6-.3,1.1v16.4c0,.3.2.5.5.5h2.3c.9,0,1.7,0,2.4-.3.7-.2,1.3-.5,1.8-.8.5-.4,1-.9,1.4-1.5s.7-1.4,1.1-2.3c.1-.5.4-.7.7-.7s.7.3.7.8h0Z"></path><path class="st1" d="M380.7,28.1c0,.2,0,.4-.2.6s-.3.2-.5.2c-.3,0-.6-.2-.8-.7-.3-.8-.7-1.5-1.1-2.1s-.8-1-1.3-1.3-1.1-.6-1.7-.7-1.4-.2-2.3-.2h-2.4c-.3,0-.5.2-.5.5v7.3c0,.3.2.5.5.5h1.6c1.6,0,2.7-.8,3.4-2.4.1-.4.4-.6.7-.6s.6.2.6.7v6.1c0,.4-.2.7-.6.7s-.5-.2-.7-.6c-.6-1.6-1.7-2.4-3.4-2.4h-1.6c-.3,0-.5.2-.5.5v8.3c0,.3.2.5.5.5h2.4c1,0,1.8,0,2.5-.3.7-.2,1.3-.5,1.9-.8.5-.4,1-.9,1.4-1.5s.8-1.4,1.1-2.3c.1-.5.4-.7.8-.7s.7.3.7.8v4.6c0,1.2-.6,1.8-1.8,1.8h-13.6c-1.5,0-2.3-.3-2.3-.9s0-.5.3-.6.4-.3.6-.5.4-.4.6-.7.3-.6.3-1.1v-14.7c0-.5,0-.8-.3-1.1-.2-.3-.4-.5-.6-.7s-.4-.4-.6-.5-.3-.4-.3-.6c0-.6.8-.9,2.3-.9h13.2c1.2,0,1.8.6,1.8,1.8v3.9h-.1Z"></path><path class="st1" d="M203.8,59.8c0,.6-.2,1.1-.5,1.5-.4.4-.8.6-1.4.6s-1.5-.4-2-1.2c-.2-.5-.5-.9-.7-1.4-.3-.5-.6-.9-.9-1.3-.3-.4-.7-.7-1.2-.9s-1-.4-1.6-.4c-.9,0-1.6.3-2.2.8-.6.5-.8,1.2-.8,2s.3,1.4.9,2,1.4,1,2.3,1.5c.9.5,1.9.9,3,1.4s2.1,1,3,1.7c.9.6,1.7,1.4,2.3,2.3s.9,2,.9,3.3-.2,1.8-.7,2.7c-.4.8-1,1.5-1.8,2.1s-1.7,1.1-2.7,1.4c-1.1.3-2.2.5-3.4.5s-2.4,0-3.5-.4-2-.7-2.7-1.2-1.3-1.1-1.8-1.8c-.4-.7-.6-1.5-.6-2.3s.2-1.2.6-1.6.9-.6,1.6-.6c1,0,1.7.4,2.2,1.3.2.6.5,1.2.7,1.8.2.6.5,1.1.9,1.6.3.5.7.9,1.3,1.1s1.1.4,1.9.4,2-.3,2.7-.9,1.1-1.4,1.1-2.4-.3-1.6-.9-2.2c-.6-.6-1.4-1.1-2.3-1.6s-1.9-.9-2.9-1.4-2-1-2.9-1.6-1.7-1.3-2.3-2.1c-.6-.8-.9-1.9-.9-3.1s.2-1.7.6-2.5.9-1.4,1.6-2,1.5-1,2.5-1.3,2-.5,3.1-.5,2.1,0,3,.4,1.7.6,2.4,1,1.2.9,1.6,1.5c.4.6.6,1.2.6,1.9h-.1Z"></path><path class="st1" d="M219.1,71.6h-7.8c-.4,0-.7.2-.8.5l-.7,1.8c-.2.6-.3,1-.1,1.3.1.3.3.5.6.7s.5.4.8.5.4.4.4.7c0,.6-.8.9-2.3.9h-1.3c-1.5,0-2.3-.3-2.3-.9s0-.5.2-.6c.1,0,.3-.3.6-.5.2-.2.5-.4.7-.7.3-.3.5-.7.7-1.2l5.9-14.2c.2-.5.3-1,.2-1.3s-.2-.6-.4-.8-.4-.4-.6-.6c-.2-.2-.3-.4-.3-.7,0-.6.6-.9,1.7-.9h1.8c.7,0,1.2,0,1.7.4.4.2.7.7,1,1.2l7.1,17c.2.5.5.9.7,1.2l.7.7c.2.2.4.3.6.5s.2.3.2.6c0,.6-.8.9-2.3.9h-4.4c-1.5,0-2.3-.3-2.3-.9s.1-.5.4-.7.5-.3.8-.5.5-.4.6-.7.1-.7-.1-1.3l-.8-1.8c0-.2-.2-.3-.3-.4s-.3,0-.5,0h0ZM219.1,69.9l-3.9-9.6-3.9,9.6h7.8,0Z"></path><path class="st1" d="M250.5,56.5c0,.3,0,.5-.3.6-.2.2-.4.3-.6.5s-.4.4-.6.7c-.2.3-.3.6-.3,1.1v17.6c0,.7-.3,1-.9,1h-.3c-.3,0-.6,0-.8-.2s-.5-.4-.8-.8l-13.5-16.7h0v13.8c0,.5,0,.8.3,1.1.2.3.4.5.6.7s.4.4.6.5.3.4.3.6c0,.6-.8.9-2.3.9h-.7c-1.5,0-2.3-.3-2.3-.9s0-.5.3-.6.4-.3.6-.5.4-.4.6-.7c.2-.3.3-.6.3-1.1v-14.7c0-.5,0-.9-.3-1.1-.2-.2-.4-.5-.6-.6s-.4-.3-.6-.5c-.2-.2-.3-.4-.3-.7,0-.6.8-.9,2.3-.9h2.4c.3,0,.6,0,.9.3.3,0,.5.3.8.5.2.2.5.5.8.8l11,13.5h0v-11.3c0-.5,0-.8-.3-1.1-.2-.3-.4-.5-.6-.7s-.4-.4-.6-.5-.3-.4-.3-.6c0-.6.8-.9,2.3-.9h.7c1.5,0,2.3.3,2.3.9h0Z"></path><path class="st1" d="M271.3,57.4v4.3c0,.5-.2.8-.7.8s-.7-.2-.8-.7c-.6-1.7-1.2-2.9-1.9-3.6-.7-.7-1.5-1-2.6-1h-.8c-.3,0-.5.2-.5.5v16.4c0,.5,0,.8.3,1.1.2.3.4.5.6.7s.4.4.6.5.3.4.3.6c0,.6-.8.9-2.3.9h-3.7c-1.5,0-2.3-.3-2.3-.9s0-.5.3-.6.4-.3.6-.5.4-.4.6-.7c.2-.3.3-.6.3-1.1v-16.4c0-.3-.2-.5-.5-.5h-.8c-1.1,0-1.9.3-2.6,1s-1.3,1.9-1.9,3.6c-.2.5-.4.7-.8.7s-.7-.3-.7-.8v-4.3c0-1.2.6-1.8,1.8-1.8h15.6c1.2,0,1.8.6,1.8,1.8h.1Z"></path><path class="st1" d="M279.4,59.4v14.7c0,.5,0,.8.3,1.1.2.3.4.5.6.7s.4.4.6.5.3.4.3.6c0,.6-.8.9-2.3.9h-3.7c-1.5,0-2.3-.3-2.3-.9s0-.5.3-.6.4-.3.6-.5.4-.4.6-.7c.2-.3.3-.6.3-1.1v-14.7c0-.5,0-.8-.3-1.1-.2-.3-.4-.5-.6-.7s-.4-.4-.6-.5-.3-.4-.3-.6c0-.6.8-.9,2.3-.9h3.7c1.5,0,2.3.3,2.3.9s0,.5-.3.6c-.2.2-.4.3-.6.5s-.4.4-.6.7-.3.6-.3,1.1Z"></path><path class="st1" d="M295.5,71.6h-7.8c-.4,0-.7.2-.8.5l-.7,1.8c-.2.6-.3,1-.1,1.3.1.3.3.5.6.7s.5.4.8.5.4.4.4.7c0,.6-.8.9-2.3.9h-1.3c-1.5,0-2.3-.3-2.3-.9s0-.5.2-.6c.1,0,.3-.3.6-.5.2-.2.5-.4.7-.7.3-.3.5-.7.7-1.2l5.9-14.2c.2-.5.3-1,.2-1.3s-.2-.6-.4-.8c-.2-.2-.4-.4-.6-.6-.2-.2-.3-.4-.3-.7,0-.6.6-.9,1.7-.9h1.8c.7,0,1.2,0,1.7.4.4.2.7.7,1,1.2l7.1,17c.2.5.5.9.7,1.2.3.3.5.5.7.7s.4.3.6.5.2.3.2.6c0,.6-.8.9-2.3.9h-4.4c-1.5,0-2.3-.3-2.3-.9s.1-.5.4-.7.5-.3.8-.5.5-.4.6-.7.1-.7-.1-1.3l-.8-1.8c0-.2-.2-.3-.3-.4s-.3,0-.5,0h-.1ZM295.5,69.9l-3.9-9.6-3.9,9.6h7.8Z"></path><path class="st1" d="M324.1,61.4c0,.8-.2,1.4-.7,1.9-.4.5-1,.7-1.7.7-1.1,0-1.9-.5-2.5-1.6-.3-.7-.7-1.3-1-1.9s-.8-1.2-1.2-1.7c-.5-.5-1-.9-1.6-1.2s-1.3-.5-2.1-.5c-1.5,0-2.6.5-3.4,1.6s-1.2,2.5-1.2,4.4.3,3.3.8,4.8c.5,1.6,1.2,2.9,2.1,4.1s1.9,2.1,3.1,2.9,2.4,1.1,3.6,1.1,1.3-.2,1.7-.6c.4-.4.6-.9.6-1.5v-2.7c0-.5,0-.9-.3-1.2-.2-.3-.4-.5-.6-.7s-.4-.4-.6-.5-.3-.4-.3-.6c0-.6.8-.9,2.3-.9h2.4c.5,0,.9,0,1.2.5.3.3.5.7.5,1.2v7.9c0,.6-.2.9-.7.9s-.4,0-.6-.2c-.2,0-.4-.2-.5-.4s-.3-.3-.5-.4-.4-.2-.6-.2-.6,0-1,.2-.8.3-1.4.5-1.1.4-1.8.5-1.5.2-2.4.2c-1.6,0-3.1-.3-4.4-.9s-2.5-1.4-3.5-2.4-1.7-2.3-2.3-3.7-.8-3-.8-4.7.3-3.3.8-4.7,1.3-2.7,2.3-3.7,2.2-1.8,3.5-2.4c1.4-.6,2.9-.9,4.5-.9s2.3.2,3.3.5,1.9.8,2.7,1.4c.8.6,1.4,1.3,1.8,2,.4.8.7,1.6.7,2.5h0l-.2.4Z"></path><path class="st1" d="M327.2,66.7c0-1.7.3-3.3.8-4.8.6-1.4,1.3-2.7,2.3-3.7s2.2-1.8,3.6-2.4c1.4-.6,3-.8,4.7-.8s3.3.3,4.7.8c1.4.6,2.6,1.4,3.6,2.4s1.8,2.2,2.3,3.7.8,3,.8,4.8-.3,3.4-.8,4.8-1.3,2.7-2.3,3.7-2.2,1.8-3.6,2.4-3,.8-4.7.8-3.3-.3-4.7-.8c-1.4-.6-2.6-1.4-3.6-2.4s-1.8-2.2-2.3-3.7-.8-3-.8-4.8h0ZM331.1,62.8c0,1.6.3,3.2.9,4.8s1.4,3,2.4,4.3,2.1,2.3,3.3,3.1c1.2.8,2.5,1.2,3.7,1.2s2.7-.5,3.6-1.5,1.3-2.3,1.3-4.1-.3-3.2-.9-4.8c-.6-1.6-1.4-3-2.4-4.3s-2.1-2.3-3.3-3.1-2.5-1.2-3.7-1.2-2.7.5-3.6,1.5-1.3,2.3-1.3,4h0Z"></path><path class="st1" d="M378.7,71.3v4.8c0,1.2-.6,1.8-1.8,1.8h-15.8c-.9,0-1.3-.3-1.3-.9s0-.3.1-.5c0-.2.2-.4.3-.6l12.5-18.7h-4.4c-.9,0-1.7,0-2.3.2-.6,0-1.2.4-1.7.7s-.9.8-1.3,1.3c-.4.6-.7,1.2-1.1,2.1-.2.4-.5.7-.8.7s-.3,0-.5-.2c-.1,0-.2-.3-.2-.6v-3.9c0-1.2.6-1.8,1.8-1.8h14.8c.9,0,1.3.3,1.3.9s-.1.7-.4,1.1l-12.5,18.7h5c1,0,1.8,0,2.5-.3.7-.2,1.3-.5,1.9-.9s1-.9,1.4-1.6.7-1.4,1.1-2.3c0-.3.2-.4.3-.5s.3,0,.4,0c.5,0,.7.3.7.8h0v-.2Z"></path><path class="st1" d="M380.3,66.7c0-1.7.3-3.3.8-4.8.6-1.4,1.3-2.7,2.3-3.7s2.2-1.8,3.6-2.4,3-.8,4.7-.8,3.3.3,4.7.8c1.4.6,2.6,1.4,3.6,2.4s1.8,2.2,2.3,3.7.8,3,.8,4.8-.3,3.4-.8,4.8-1.3,2.7-2.3,3.7-2.2,1.8-3.6,2.4-3,.8-4.7.8-3.3-.3-4.7-.8c-1.4-.6-2.6-1.4-3.6-2.4s-1.8-2.2-2.3-3.7c-.6-1.4-.8-3-.8-4.8h0ZM384.2,62.8c0,1.6.3,3.2.9,4.8s1.4,3,2.4,4.3,2.1,2.3,3.3,3.1c1.2.8,2.5,1.2,3.7,1.2s2.7-.5,3.6-1.5,1.3-2.3,1.3-4.1-.3-3.2-.9-4.8-1.4-3-2.4-4.3-2.1-2.3-3.3-3.1-2.5-1.2-3.7-1.2-2.7.5-3.6,1.5-1.3,2.3-1.3,4h0Z"></path><path class="st1" d="M422.6,60.7c0,1.2-.4,2.2-1.3,3-.8.8-2,1.3-3.6,1.5h0c2.2.3,3.8,1,5,2s1.8,2.4,1.8,4.2-.8,3.7-2.4,4.9-3.8,1.7-6.8,1.7h-8.1c-1.5,0-2.3-.3-2.3-.9s0-.5.3-.6.4-.3.6-.5.4-.4.6-.7c.2-.3.3-.6.3-1.1v-14.7c0-.5,0-.8-.3-1.1-.2-.3-.4-.5-.6-.7s-.4-.4-.6-.5-.3-.4-.3-.6c0-.6.8-.9,2.3-.9h8.1c2.3,0,4.1.5,5.4,1.4s1.9,2.2,1.9,3.8h0v-.2ZM417.6,60.9c0-1.1-.3-2-1-2.7s-1.6-1-2.7-1h-1.8c-.3,0-.5.2-.5.5v6.5c0,.3.2.5.5.5h1.8c1.1,0,2-.3,2.7-1,.7-.7,1-1.6,1-2.7h0ZM419.3,71.3c0-.7-.1-1.4-.4-2s-.6-1.2-1.1-1.6-1-.8-1.6-1-1.3-.4-2.1-.4h-2c-.3,0-.5.2-.5.5v9c0,.3.2.5.5.5h2c.8,0,1.4,0,2.1-.4s1.2-.6,1.6-1c.5-.4.8-1,1.1-1.6s.4-1.3.4-2h0Z"></path><path class="st1" d="M443.5,61.3c0,.2,0,.4-.2.6s-.3.2-.5.2c-.3,0-.6-.2-.8-.7-.3-.8-.7-1.5-1.1-2.1s-.8-1-1.3-1.3-1.1-.6-1.7-.7c-.6,0-1.4-.2-2.3-.2h-2.4c-.3,0-.5.2-.5.5v7.3c0,.3.2.5.5.5h1.6c1.6,0,2.7-.8,3.4-2.4.1-.4.4-.6.7-.6s.6.2.6.7v6.1c0,.4-.2.7-.6.7s-.5-.2-.7-.6c-.6-1.6-1.7-2.4-3.4-2.4h-1.6c-.3,0-.5.2-.5.5v8.3c0,.3.2.5.5.5h2.4c1,0,1.8,0,2.5-.3.7-.2,1.3-.5,1.9-.8.5-.4,1-.9,1.4-1.5s.8-1.4,1.1-2.3c.1-.5.4-.7.8-.7s.7.3.7.8v4.6c0,1.2-.6,1.8-1.8,1.8h-13.6c-1.5,0-2.3-.3-2.3-.9s0-.5.3-.6.4-.3.6-.5.4-.4.6-.7c.2-.3.3-.6.3-1.1v-14.7c0-.5,0-.8-.3-1.1-.2-.3-.4-.5-.6-.7s-.4-.4-.6-.5-.3-.4-.3-.6c0-.6.8-.9,2.3-.9h13.2c1.2,0,1.8.6,1.8,1.8v3.9h-.1Z"></path><path class="st1" d="M463,71.6v4.6c0,1.2-.6,1.8-1.8,1.8h-13.3c-1.5,0-2.3-.3-2.3-.9s0-.5.3-.6.4-.3.6-.5.4-.4.6-.7c.2-.3.3-.6.3-1.1v-14.7c0-.5,0-.8-.3-1.1-.2-.3-.4-.5-.6-.7s-.4-.4-.6-.5-.3-.4-.3-.6c0-.6.8-.9,2.3-.9h3.7c1.5,0,2.3.3,2.3.9s0,.5-.3.6c-.2.2-.4.3-.6.5s-.4.4-.6.7-.3.6-.3,1.1v16.4c0,.3.2.5.5.5h2.3c.9,0,1.7,0,2.4-.3.7-.2,1.3-.5,1.8-.8.5-.4,1-.9,1.4-1.5s.7-1.4,1.1-2.3c.1-.5.4-.7.7-.7s.7.3.7.8h0Z"></path><path class="st1" d="M203.8,93c0,.6-.2,1.1-.5,1.5-.4.4-.8.6-1.4.6s-1.5-.4-2-1.2c-.2-.5-.5-.9-.7-1.4-.3-.5-.6-.9-.9-1.3-.3-.4-.7-.7-1.2-.9-.5-.2-1-.4-1.6-.4-.9,0-1.6.3-2.2.8-.6.5-.8,1.2-.8,2s.3,1.4.9,2,1.4,1,2.3,1.5c.9.5,1.9.9,3,1.4s2.1,1,3,1.7c.9.6,1.7,1.4,2.3,2.3s.9,2,.9,3.3-.2,1.8-.7,2.7c-.4.8-1,1.5-1.8,2.1s-1.7,1.1-2.7,1.4c-1.1.3-2.2.5-3.4.5s-2.4,0-3.5-.4-2-.7-2.7-1.2-1.3-1.1-1.8-1.8c-.4-.7-.6-1.5-.6-2.3s.2-1.2.6-1.6.9-.6,1.6-.6c1,0,1.7.4,2.2,1.3.2.6.5,1.2.7,1.8.2.6.5,1.1.9,1.6.3.5.7.9,1.3,1.1s1.1.4,1.9.4,2-.3,2.7-.9,1.1-1.4,1.1-2.4-.3-1.6-.9-2.2c-.6-.6-1.4-1.1-2.3-1.6s-1.9-.9-2.9-1.4-2-1-2.9-1.6-1.7-1.3-2.3-2.1c-.6-.8-.9-1.9-.9-3.1s.2-1.7.6-2.5c.4-.8.9-1.4,1.6-2s1.5-1,2.5-1.3,2-.5,3.1-.5,2.1,0,3,.4,1.7.6,2.4,1,1.2.9,1.6,1.5c.4.6.6,1.2.6,1.9h-.1Z"></path><path class="st1" d="M226.2,94.7c0,.8-.2,1.4-.7,1.9-.4.5-1,.7-1.7.7-1.1,0-1.9-.5-2.5-1.6-.3-.7-.7-1.3-1-1.9s-.8-1.2-1.2-1.7c-.5-.5-1-.9-1.6-1.2s-1.3-.5-2.1-.5c-1.5,0-2.8.5-3.6,1.6-.9,1.1-1.3,2.5-1.3,4.4s.3,3.1.8,4.5,1.3,2.6,2.3,3.7,2.1,1.9,3.4,2.5,2.7.9,4.2.9,1.9,0,2.8-.4c.9-.3,1.8-.7,2.6-1.3.1,0,.3,0,.4,0s.3,0,.4.2.2.2.2.4v.4c-1,1.4-2.2,2.5-3.9,3.3-1.6.8-3.4,1.2-5.4,1.2s-3.3-.3-4.7-.8c-1.4-.6-2.6-1.4-3.7-2.4s-1.8-2.2-2.4-3.7c-.6-1.4-.8-3-.8-4.8s.3-3.3.8-4.7,1.3-2.7,2.3-3.7,2.2-1.8,3.5-2.4c1.4-.6,2.9-.9,4.5-.9s2.3.2,3.3.5,1.9.8,2.7,1.4,1.4,1.3,1.8,2c.4.8.7,1.6.7,2.5h-.1Z"></path><path class="st1" d="M249.5,92.6v14.7c0,.5,0,.8.3,1.1.2.3.4.5.6.7s.4.4.6.5.3.4.3.6c0,.6-.8.9-2.3.9h-3.8c-1.5,0-2.3-.3-2.3-.9s0-.5.3-.6c.2,0,.4-.3.6-.5.2-.2.4-.4.6-.7.2-.3.3-.6.3-1.1v-6.3c0-.3-.2-.5-.6-.5h-8.3c-.3,0-.5.2-.5.5v6.3c0,.5,0,.8.3,1.1.2.3.4.5.6.7s.4.4.6.5.3.4.3.6c0,.6-.8.9-2.3.9h-3.7c-1.5,0-2.3-.3-2.3-.9s0-.5.3-.6c.2,0,.4-.3.6-.5.2-.2.4-.4.6-.7.2-.3.3-.6.3-1.1v-14.7c0-.5,0-.8-.3-1.1-.2-.3-.4-.5-.6-.7s-.4-.4-.6-.5-.3-.4-.3-.6c0-.6.8-.9,2.3-.9h3.7c1.5,0,2.3.3,2.3.9s0,.5-.3.6c-.2.2-.4.3-.6.5s-.4.4-.6.7c-.2.3-.3.6-.3,1.1v5.7c0,.3.2.5.5.5h8.3c.4,0,.6-.2.6-.5v-5.7c0-.5,0-.8-.3-1.1-.2-.3-.4-.5-.6-.7s-.4-.4-.6-.5-.3-.4-.3-.6c0-.6.8-.9,2.3-.9h3.8c1.5,0,2.3.3,2.3.9s0,.5-.3.6c-.2.2-.4.3-.6.5s-.4.4-.6.7c-.2.3-.3.6-.3,1.1Z"></path><path class="st1" d="M253,99.9c0-1.7.3-3.3.8-4.8.6-1.4,1.3-2.7,2.3-3.7s2.2-1.8,3.6-2.4,3-.8,4.7-.8,3.3.3,4.7.8c1.4.6,2.6,1.4,3.6,2.4s1.8,2.2,2.3,3.7.8,3,.8,4.8-.3,3.4-.8,4.8-1.3,2.7-2.3,3.7-2.2,1.8-3.6,2.4-3,.8-4.7.8-3.3-.3-4.7-.8c-1.4-.6-2.6-1.4-3.6-2.4s-1.8-2.2-2.3-3.7c-.6-1.4-.8-3-.8-4.8h0ZM256.9,96.1c0,1.6.3,3.2.9,4.8.6,1.6,1.4,3,2.4,4.3s2.1,2.3,3.3,3.1c1.2.8,2.5,1.2,3.7,1.2s2.7-.5,3.6-1.5,1.3-2.3,1.3-4.1-.3-3.2-.9-4.8c-.6-1.6-1.4-3-2.4-4.3s-2.1-2.3-3.3-3.1-2.5-1.2-3.7-1.2-2.7.5-3.6,1.5-1.3,2.3-1.3,4h0Z"></path><path class="st1" d="M278,99.9c0-1.7.3-3.3.8-4.8.6-1.4,1.3-2.7,2.3-3.7s2.2-1.8,3.6-2.4,3-.8,4.7-.8,3.3.3,4.7.8c1.4.6,2.6,1.4,3.6,2.4s1.8,2.2,2.3,3.7.8,3,.8,4.8-.3,3.4-.8,4.8-1.3,2.7-2.3,3.7-2.2,1.8-3.6,2.4-3,.8-4.7.8-3.3-.3-4.7-.8c-1.4-.6-2.6-1.4-3.6-2.4s-1.8-2.2-2.3-3.7c-.6-1.4-.8-3-.8-4.8h0ZM281.8,96.1c0,1.6.3,3.2.9,4.8.6,1.6,1.4,3,2.4,4.3s2.1,2.3,3.3,3.1c1.2.8,2.5,1.2,3.7,1.2s2.7-.5,3.6-1.5,1.3-2.3,1.3-4.1-.3-3.2-.9-4.8c-.6-1.6-1.4-3-2.4-4.3s-2.1-2.3-3.3-3.1-2.5-1.2-3.7-1.2-2.7.5-3.6,1.5-1.3,2.3-1.3,4h0Z"></path><path class="st1" d="M320.1,104.8v4.6c0,1.2-.6,1.8-1.8,1.8h-13.3c-1.5,0-2.3-.3-2.3-.9s0-.5.3-.6c.2,0,.4-.3.6-.5s.4-.4.6-.7c.2-.3.3-.6.3-1.1v-14.7c0-.5,0-.8-.3-1.1-.2-.3-.4-.5-.6-.7s-.4-.4-.6-.5-.3-.4-.3-.6c0-.6.8-.9,2.3-.9h3.7c1.5,0,2.3.3,2.3.9s0,.5-.3.6c-.2.2-.4.3-.6.5s-.4.4-.6.7c-.2.3-.3.6-.3,1.1v16.4c0,.3.2.5.5.5h2.3c.9,0,1.7,0,2.4-.3.7-.2,1.3-.5,1.8-.8.5-.4,1-.9,1.4-1.5s.7-1.4,1.1-2.3c.1-.5.4-.7.7-.7s.7.3.7.8h0Z"></path></g></g></svg>